#!OML:ASF F:\VICON\USERDATA\INSTALL\Justin_Nancy\Justin_Nancy.ASF
:FULLY-SPECIFIED
:DEGREES
160
root 0.863027 17.4219 -4.22822 -0.404043 -0.943189 3.6259
lowerback 6.3665 -1.19793 -3.93898
upperback 0.0099674 -1.80716 2.27542
thorax -3.36679 -0.816997 4.74424
lowerneck -17.5681 -2.6672 -9.13884
upperneck 22.4136 -2.22282 4.36793
head 10.2242 -1.29614 2.76738
rclavicle -4.00551e-014 2.14687e-014
rhumerus -34.5286 -16.239 -74.778
rradius 29.1236
rwrist 7.65071
rhand -12.9114 14.1599
rfingers 7.12502
rthumb 13.1786 -15.4036
lclavicle -4.00551e-014 2.14687e-014
lhumerus -26.1321 10.5039 85.9586
lradius 23.6809
lwrist -13.5865
lhand -13.8546 27.584
lfingers 7.12502
lthumb 12.2693 417.204
rfemur -26.8069 -3.70131 16.8015
rtibia 58.506
rfoot -11.4688 -5.90053
rtoes -7.9605
lfemur -8.66449 1.21614 -28.7711
ltibia 29.0566
lfoot -16.3983 3.2756
ltoes 2.11911
161
root 0.861744 17.42 -4.08855 -0.273541 -1.00526 3.74696
lowerback 6.39474 -1.22811 -4.14136
upperback -0.0271023 -1.86258 2.30677
thorax -3.40789 -0.839102 4.89868
lowerneck -17.7777 -2.75195 -9.09311
upperneck 22.3899 -2.31606 4.29827
head 10.2614 -1.34097 2.72056
rclavicle -5.46658e-016 -3.97569e-015
rhumerus -34.7143 -16.2555 -74.7272
rradius 29.0667
rwrist 7.93106
rhand -12.9589 14.6444
rfingers 7.12502
rthumb 13.1329 -14.922
lclavicle -5.46658e-016 -3.97569e-015
lhumerus -25.6249 10.2789 86.0777
lradius 23.6786
lwrist -13.7556
lhand -14.5225 26.3062
lfingers 7.12502
lthumb 11.6253 415.964
rfemur -27.5667 -3.64869 16.7447
rtibia 57.0119
rfoot -11.6228 -6.43404
rtoes -7.93074
lfemur -8.17053 1.24014 -28.9174
ltibia 28.842
lfoot -16.6667 3.32261
ltoes 2.5238
162
root 0.856934 17.4122 -3.95374 -0.259347 -1.13278 3.70033
lowerback 6.47568 -1.18242 -4.1498
upperback 0.0640056 -1.8043 2.31421
thorax -3.36479 -0.812995 4.907
lowerneck -18.0694 -2.76502 -8.91767
upperneck 22.4069 -2.35623 4.29475
head 10.3225 -1.34206 2.68386
rclavicle 5.86415e-015 2.06736e-014
rhumerus -34.6607 -16.6685 -74.7117
rradius 28.8909
rwrist 8.2334
rhand -12.837 15.1059
rfingers 7.12502
rthumb 13.2503 -14.4529
lclavicle 5.86415e-015 2.06736e-014
lhumerus -24.9661 9.6053 86.2976
lradius 24.0072
lwrist -12.9501
lhand -14.6439 26.0531
lfingers 7.12502
lthumb 11.5082 415.717
rfemur -28.1432 -3.49747 16.8863
rtibia 55.3918
rfoot -11.665 -7.07048
rtoes -8.19639
lfemur -7.49052 1.33611 -28.8533
ltibia 28.4779
lfoot -16.9041 3.32534
ltoes 2.17906
163
root 0.851465 17.4057 -3.81714 -0.277132 -1.05295 3.96996
lowerback 6.53558 -1.2163 -4.50293
upperback 0.117122 -1.87973 2.26434
thorax -3.32524 -0.84756 5.06271
lowerneck -18.0274 -2.70307 -8.75999
upperneck 22.2877 -2.32251 4.31226
head 10.2659 -1.30931 2.66714
rclavicle 3.8266e-015 -1.51076e-014
rhumerus -34.7052 -16.8622 -74.7579
rradius 28.8085
rwrist 8.37982
rhand -12.8167 14.9149
rfingers 7.12502
rthumb 13.2699 -14.6426
lclavicle 3.8266e-015 -1.51076e-014
lhumerus -24.6555 8.68747 86.522
lradius 24.6103
lwrist -12.3921
lhand -14.6128 26.554
lfingers 7.12502
lthumb 11.5382 416.216
rfemur -28.6286 -3.61786 16.6597
rtibia 53.7129
rfoot -11.3895 -7.65711
rtoes -8.28336
lfemur -6.70953 1.35245 -29.1292
ltibia 28.0466
lfoot -17.2281 3.41149
ltoes 1.48419
164
root 0.848521 17.404 -3.67544 -0.21035 -0.843694 4.05496
lowerback 6.47805 -1.35378 -4.60743
upperback 0.0913901 -2.06899 2.26236
thorax -3.29349 -0.94069 5.13451
lowerneck -17.6284 -2.6903 -8.71301
upperneck 21.8814 -2.3566 4.33977
head 10.0464 -1.3153 2.65953
rclavicle -1.52567e-014 -9.54166e-015
rhumerus -34.9549 -16.8942 -74.791
rradius 28.8138
rwrist 8.62334
rhand -13.0314 14.3758
rfingers 7.12502
rthumb 13.063 -15.1951
lclavicle -1.52567e-014 -9.54166e-015
lhumerus -24.3427 8.15968 86.5979
lradius 24.88
lwrist -12.4031
lhand -14.8175 26.1271
lfingers 7.12502
lthumb 11.3407 415.8
rfemur -29.0556 -3.83177 16.6342
rtibia 51.9262
rfoot -10.9764 -8.37332
rtoes -7.34113
lfemur -5.98306 1.30082 -29.1978
ltibia 27.5546
lfoot -17.52 3.41217
ltoes 0.159139
165
root 0.846505 17.4049 -3.54124 -0.04671 -0.777452 4.15792
lowerback 6.38251 -1.4213 -4.74587
upperback 0.0423966 -2.16546 2.27665
thorax -3.27358 -0.98606 5.23374
lowerneck -17.2278 -2.66928 -8.80436
upperneck 21.4338 -2.36945 4.49419
head 9.81541 -1.308 2.72267
rclavicle -5.51627e-015 -1.03368e-014
rhumerus -35.258 -17.0134 -74.7119
rradius 28.8333
rwrist 8.8062
rhand -13.1631 14.4205
rfingers 7.12502
rthumb 12.9359 -15.1585
lclavicle -5.51627e-015 -1.03368e-014
lhumerus -23.8978 7.58643 86.7636
lradius 25.0692
lwrist -11.9819
lhand -15.1913 25.9935
lfingers 7.12502
lthumb 10.9803 415.686
rfemur -29.5958 -4.02487 16.6275
rtibia 50.0498
rfoot -10.3812 -8.97396
rtoes -7.46978
lfemur -5.37634 1.35351 -29.2987
ltibia 26.9885
lfoot -17.6311 3.3508
ltoes 0.248773
166
root 0.842324 17.4076 -3.41152 0.16175 -0.626943 4.37346
lowerback 6.35252 -1.53592 -5.04041
upperback -0.0156596 -2.33908 2.29115
thorax -3.28361 -1.06615 5.43092
lowerneck -17.0755 -2.63513 -8.84692
upperneck 21.2255 -2.32935 4.53058
head 9.71114 -1.28712 2.74551
rclavicle -4.64162e-014 1.51076e-014
rhumerus -35.3802 -16.9049 -74.7125
rradius 28.7546
rwrist 8.75467
rhand -13.0637 14.7134
rfingers 7.12502
rthumb 13.0318 -14.8596
lclavicle -4.64162e-014 1.51076e-014
lhumerus -23.6615 7.34915 86.8921
lradius 25.6791
lwrist -11.7659
lhand -15.1092 26.3011
lfingers 7.12502
lthumb 11.0594 415.99
rfemur -30.1652 -4.17951 16.4688
rtibia 48.0652
rfoot -9.66612 -9.4217
rtoes -7.67649
lfemur -4.80562 1.2589 -29.5239
ltibia 26.4119
lfoot -17.6234 3.35391
ltoes -0.0939006
167
root 0.832034 17.4105 -3.27416 0.359732 -0.502056 4.37962
lowerback 6.19016 -1.65289 -5.17521
upperback 0.0214891 -2.49517 2.35179
thorax -3.12519 -1.14797 5.5755
lowerneck -17.2415 -2.66285 -8.93306
upperneck 21.2051 -2.36482 4.68294
head 9.74011 -1.29112 2.80829
rclavicle 1.65488e-014 2.38542e-015
rhumerus -35.3734 -16.6674 -74.8832
rradius 28.7085
rwrist 8.52859
rhand -13.321 15.3541
rfingers 7.12502
rthumb 12.7838 -14.2345
lclavicle 1.65488e-014 2.38542e-015
lhumerus -23.2425 7.03452 86.9611
lradius 26.2145
lwrist -11.5776
lhand -14.85 26.6818
lfingers 7.12502
lthumb 11.3094 416.357
rfemur -30.6063 -4.17343 16.5426
rtibia 45.9436
rfoot -8.82014 -9.8866
rtoes -7.40796
lfemur -4.24149 1.3438 -29.4659
ltibia 25.8871
lfoot -17.6727 3.17101
ltoes -0.442192
168
root 0.822528 17.4054 -3.13716 0.389057 -0.542289 4.48171
lowerback 6.23335 -1.73995 -5.43074
upperback 0.0724005 -2.62967 2.40218
thorax -3.06496 -1.21445 5.78467
lowerneck -17.6578 -2.63812 -8.95291
upperneck 21.4077 -2.29331 4.70257
head 9.8845 -1.25617 2.83058
rclavicle 2.98177e-014 -1.03368e-014
rhumerus -35.438 -16.3671 -75.0399
rradius 28.8082
rwrist 8.50198
rhand -13.3034 15.547
rfingers 7.12502
rthumb 12.8007 -14.0405
lclavicle 2.98177e-014 -1.03368e-014
lhumerus -22.8632 6.85245 86.9981
lradius 26.628
lwrist -11.438
lhand -15.1131 26.5773
lfingers 7.12502
lthumb 11.0557 416.266
rfemur -30.8174 -4.118 16.5255
rtibia 43.7166
rfoot -7.72398 -10.2593
rtoes -6.26379
lfemur -3.50232 1.37173 -29.5378
ltibia 25.383
lfoot -17.7619 3.16915
ltoes -0.370062
169
root 0.815663 17.4043 -3.00234 0.459533 -0.622299 4.48512
lowerback 6.44451 -1.74158 -5.46483
upperback -0.0458104 -2.64649 2.396
thorax -3.3033 -1.21047 5.81251
lowerneck -17.7789 -2.63315 -8.85858
upperneck 21.5885 -2.31645 4.7434
head 9.97199 -1.256 2.82884
rclavicle 2.78299e-015 -7.95139e-015
rhumerus -35.7962 -16.5722 -74.963
rradius 28.8238
rwrist 8.6943
rhand -13.1401 15.4702
rfingers 7.12502
rthumb 12.9582 -14.1074
lclavicle 2.78299e-015 -7.95139e-015
lhumerus -22.9661 6.20646 87.072
lradius 27.4361
lwrist -10.9365
lhand -15.3227 26.9126
lfingers 7.12502
lthumb 10.8535 416.612
rfemur -30.983 -4.01934 16.6024
rtibia 41.3489
rfoot -6.42528 -10.4923
rtoes -5.0228
lfemur -2.83898 1.49251 -29.5109
ltibia 24.9361
lfoot -17.9598 3.15012
ltoes -0.383778
170
root 0.803757 17.4041 -2.8739 0.615198 -0.655738 4.49431
lowerback 6.56369 -1.74843 -5.49414
upperback -0.129229 -2.66618 2.35933
thorax -3.45506 -1.21219 5.80041
lowerneck -17.6931 -2.6795 -8.76551
upperneck 21.4429 -2.42945 4.80748
head 9.91163 -1.29187 2.81839
rclavicle 6.1822e-014 -1.43125e-014
rhumerus -35.9867 -16.9778 -74.9393
rradius 28.7526
rwrist 8.97211
rhand -12.8679 15.0175
rfingers 7.12502
rthumb 13.2206 -14.5433
lclavicle 6.1822e-014 -1.43125e-014
lhumerus -23.0559 5.50502 87.0836
lradius 28.4481
lwrist -10.4044
lhand -15.1795 27.1201
lfingers 7.12502
lthumb 10.9916 416.812
rfemur -31.2051 -3.80076 16.6525
rtibia 38.9002
rfoot -5.18352 -10.7072
rtoes -3.09048
lfemur -2.27214 1.53109 -29.4727
ltibia 24.4995
lfoot -18.0709 3.15868
ltoes -0.256625
171
root 0.793821 17.4055 -2.74153 0.857511 -0.558928 4.57654
lowerback 6.46232 -1.85532 -5.60549
upperback -0.186763 -2.81377 2.33972
thorax -3.43339 -1.28334 5.85181
lowerneck -17.4097 -2.68902 -8.52498
upperneck 21.0268 -2.48586 4.63374
head 9.70985 -1.31559 2.70347
rclavicle 1.19271e-015 2.38542e-015
rhumerus -36.116 -17.1077 -74.9949
rradius 28.6281
rwrist 9.10345
rhand -12.8184 15.3152
rfingers 7.12502
rthumb 13.2683 -14.2425
lclavicle 1.19271e-015 2.38542e-015
lhumerus -22.9958 4.99354 87.0461
lradius 29.2105
lwrist -9.87881
lhand -15.1403 26.5179
lfingers 7.12502
lthumb 11.0294 416.208
rfemur -31.3997 -3.54142 16.5478
rtibia 36.3694
rfoot -3.88382 -10.8962
rtoes -0.886755
lfemur -1.80483 1.38664 -29.5284
ltibia 24.0537
lfoot -17.8722 3.15927
ltoes 0.864963
172
root 0.787321 17.4028 -2.60056 1.01095 -0.602128 4.63056
lowerback 6.34009 -1.93247 -5.69305
upperback -0.157375 -2.91547 2.37269
thorax -3.31375 -1.33775 5.93714
lowerneck -17.4786 -2.69111 -8.47648
upperneck 20.8387 -2.46666 4.53011
head 9.65309 -1.3112 2.65859
rclavicle 1.61016e-014 2.3059e-014
rhumerus -36.0896 -17.3002 -74.9485
rradius 28.4391
rwrist 9.4616
rhand -12.6884 15.8447
rfingers 7.12502
rthumb 13.3935 -13.7047
lclavicle 1.61016e-014 2.3059e-014
lhumerus -22.8016 4.67236 87.0734
lradius 29.8008
lwrist -9.32417
lhand -15.4578 25.4727
lfingers 7.12502
lthumb 10.7232 415.179
rfemur -31.3921 -3.23267 16.4217
rtibia 33.7995
rfoot -2.83598 -10.7482
rtoes 0.389594
lfemur -1.17718 1.40191 -29.5604
ltibia 23.5334
lfoot -17.5082 3.10463
ltoes 3.60807
173
root 0.777314 17.3979 -2.45801 1.10017 -0.560705 4.81627
lowerback 6.1791 -2.02813 -5.91402
upperback -0.0204203 -3.04952 2.34541
thorax -3.05152 -1.41523 6.03087
lowerneck -17.6953 -2.67328 -8.45658
upperneck 20.6805 -2.43597 4.581
head 9.63523 -1.28488 2.6747
rclavicle 2.38542e-015 1.59028e-015
rhumerus -35.8196 -17.5402 -75.0163
rradius 28.1713
rwrist 9.64819
rhand -12.8061 15.9376
rfingers 7.12502
rthumb 13.2801 -13.6193
lclavicle 2.38542e-015 1.59028e-015
lhumerus -22.5372 4.49206 87.0745
lradius 30.4818
lwrist -8.9881
lhand -15.9346 24.8774
lfingers 7.12502
lthumb 10.2633 414.607
rfemur -31.2518 -2.88661 16.0714
rtibia 31.1913
rfoot -1.78477 -10.4131
rtoes 0.481942
lfemur -0.441527 1.39738 -29.7154
ltibia 22.9682
lfoot -17.3602 3.01865
ltoes 5.09432
